<svg id="Layer_1" data-name="Layer 1" xmlns="http://www.w3.org/2000/svg" viewBox="0 0 300 300"><defs><style>.cls-1{fill:#ffffff;}</style></defs><title>foxit-icon-svg</title><path class="cls-1" d="M121.83,300h18.93c32.38-3.2,64.42-15,86.71-37.51,20.72-20.94,37.92-51.94,40.19-83.73,2.18-30-6.34-45.48-20.48-60.61-1.84,15.47.18,29.94-4.74,42.28-8.59-11.5-11.67-28.61-24.44-35.91.5,45-24.56,78.14-71.72,64.62,8.83,23.76,30.21,34.81,63.85,33.49,1.61,1.83-1.52,3.93-2.37,4.78C195.84,239.57,177.54,249,154.93,249c-42.2,0-69.68-29.57-70.14-71.79-.62-55.53,49.64-99.71,100.9-102.88,27.53-1.71,52.65,13.38,64.64,30.29C244.68,64.05,212.83,50,180.18,36.8,248.7,33.67,279.26,69,300,114.17,290.47,50.41,255.38,5.65,185.69.12,178.32.12,101.3-5.4,46.93,57.53,19.71,89.06-3.46,130.27.43,185.13,5,249.89,51.64,296.87,121.83,300" transform="translate(0 0)"/></svg>