<?xml version="1.0" encoding="utf-8"?>
<!-- Generator: Adobe Illustrator 16.0.0, SVG Export Plug-In . SVG Version: 6.00 Build 0)  -->
<!DOCTYPE svg PUBLIC "-//W3C//DTD SVG 1.1//EN" "http://www.w3.org/Graphics/SVG/1.1/DTD/svg11.dtd">
<svg version="1.1" id="Layer_1" xmlns="http://www.w3.org/2000/svg" xmlns:xlink="http://www.w3.org/1999/xlink" x="0px" y="0px"
	   viewBox="0 0 295 120" enable-background="new 0 0 295 120" xml:space="preserve">
<g>
	<path fill="#FFFFFF" d="M90.644,118.452h4.769c8.162-0.797,16.236-3.726,21.854-9.344c5.223-5.218,9.558-12.939,10.129-20.858
		c0.549-7.476-1.598-11.331-5.161-15.1c-0.463,3.854,0.046,7.459-1.194,10.532c-2.166-2.865-2.943-7.126-6.159-8.945
		c0.125,11.212-6.192,19.467-18.076,16.099c2.225,5.918,7.614,8.67,16.091,8.341c0.406,0.458-0.382,0.98-0.596,1.192
		c-3.005,3.029-7.618,5.368-13.315,5.368c-10.635,0-17.561-7.367-17.677-17.883c-0.157-13.833,12.511-24.841,25.429-25.631
		c6.939-0.426,13.27,3.335,16.292,7.548c-1.424-10.099-9.451-13.592-17.682-16.887c17.269-0.78,24.973,8.009,30.199,19.274
		c-2.401-15.882-11.246-27.034-28.81-28.41c-1.857,0-21.268-1.375-34.97,14.301c-6.861,7.854-12.701,18.121-11.72,31.786
		C61.205,105.97,72.953,117.673,90.644,118.452"/>
</g>
</svg>